<svg version="1" xmlns="http://www.w3.org/2000/svg" width="346.667" height="346.667" viewBox="0 0 260.000000 260.000000"><path d="M92 8.6c0 2.2-.2 2.5-1.5 1.4-3.2-2.6-18.3 2-20.6 6.2-.5 1-1.4 1.8-2 1.8-.6 0-3.1 1.8-5.7 4-2.5 2.2-4.7 3.8-5 3.6-.5-.6-3.2 1.9-3.2 2.9 0 .4-1.6 2.5-3.5 4.8-1.9 2.2-3.5 4.7-3.5 5.4 0 .7-.3 1.3-.7 1.3-1.1 0-3.3 5-3.3 7.5 0 1.2-.5 2.6-1.1 3.2-1.1 1.1-3 11.1-2.9 15.7 0 1.6-.5 3.3-1.2 3.7-.9.6-.9 1.3.2 3.4 1 1.9 1.1 3.1.4 4.3-.6.9-1.1 4.4-1.3 7.7-.2 8.6-.9 10.9-3.3 12-1.5.7-2.5 2.3-3.1 5-.4 2.2-1.2 4.4-1.7 4.9-1.3 1.3-1.3 6.3 0 7.1.6.4.8 1.1.5 1.6-.4.5-.1.9.4.9.6 0 1.1 1.6 1.1 3.5 0 2.2.6 3.8 1.5 4.1.8.4 1.2 1 .9 1.6-.3.5.2 2.5 1.1 4.3 1.3 2.9 2.3 3.6 5.4 4.1l3.9.6.7 20.7c.8 20.7-.2 34.2-2.4 34.9-.6.2-1.1 1.1-1.1 2 0 1.8-4.4 5.7-6.4 5.7-.6 0-3.1 1.4-5.5 3.2-2.4 1.8-4.8 3.3-5.3 3.3s-1.8.9-3 2-3 2-4.1 2c-1 0-3.3.6-5 1.4-2.9 1.3-7.4 2.5-10.4 2.8-1 .1-1.3 5.5-1.3 23.5V260h108.5c59.7 0 108.5-.2 108.5-.4 0-.3-.5-3.9-1.1-8.2-1-7.1-2.8-11.2-4.3-9.7-.3.4-.6-.1-.6-1 0-1-.6-1.7-1.4-1.7-.7 0-1.6-.8-1.8-1.8-.3-1-2.3-2.2-5.1-3.1-2.6-.7-4.7-1.7-4.7-2.2 0-.5-.5-.9-1.1-.9-.6 0-2.3-.8-3.7-1.8-1.5-1.1-5.5-2.5-8.9-3.2-3.4-.7-6.4-1.9-6.7-2.6-.3-.8-2.3-1.7-4.6-2-2.2-.4-4-1-4-1.5s-.5-.9-1-.9c-1.1 0-11.8-4.8-18.2-8.1-2-1-4.3-1.9-5.1-1.9-.8 0-2-.7-2.8-1.6-.7-.8-2.1-1.3-3.1-1.1-1 .3-1.8.1-1.8-.4 0-1.5-4.3-5.9-5.7-5.9-.8 0-1.6-.8-2-1.7-.3-1-1.5-2.6-2.5-3.6s-2.1-3.2-2.5-4.8c-.3-1.6-.9-2.9-1.4-2.9-.4 0-.6-1.4-.4-3.1.3-1.7 0-4-.6-5.1-.7-1.3-.7-2.3 0-3.2.6-.7.8-1.6.4-1.9-.3-.4-.1-.7.5-.7.7 0 1.2-.7 1.2-1.5 0-.7.6-1.8 1.4-2.2.8-.4 1.6-1.3 1.7-1.8.2-1.2 3-5.6 4.5-7.2.6-.7 1.5-2.8 1.8-4.8.4-1.9 1.1-3.5 1.7-3.5.6 0 .7-.5.4-1-.4-.6-.2-1.6.3-2.3 1.3-1.7 3.4-14.6 3.3-20.6 0-1.8.3-3.9.6-4.5 1.2-1.9 1.2-4 .1-5.3-.8-1-.7-1.3.3-1.3 2.4 0 6.9-5.3 6.9-8.1 0-1.5.7-3.4 1.5-4.3 1-.9 1.5-3.4 1.5-7 0-4.9-.2-5.5-2.2-5.9l-2.3-.4 2.2-.2c2-.1 2.1-.4 1.2-3.1-.6-1.6-1.5-2.7-2-2.4-.5.3-.9-1.1-.9-3 0-2.5-.4-3.6-1.5-3.6-1.2 0-1.5-1.4-1.5-6.8 0-9.4-1.8-23.6-3-24-.5-.2-1-1.2-1-2.3 0-1-.4-1.9-1-1.9-.5 0-1-2.2-1-4.9 0-2.8-.4-5.3-1-5.6-.9-.5-1.7-3.2-3.4-10.8-.5-1.9-1.6-3.2-3.6-3.9-1.7-.5-3-1.6-3-2.3 0-.7-3.1-2.8-7-4.7-3.8-1.8-6.9-3.9-7-4.6 0-1.5-3-1.6-3-.1 0 .6-.8.8-1.7.5-2.1-.6-4.6 1.1-5.6 3.6-.8 2.1-3.7 2.4-3.7.4 0-.8-.7-1.6-1.5-2-.8-.3-1.5-1.2-1.5-2.1 0-.8-.7-1.5-1.5-1.5-1 0-1.5 1-1.5 2.6zm30.3 29.7c3.2 1.6 6.1 3.6 6.4 4.5.3.9 2.5 5.8 5 10.9 2.5 5.2 4.6 11.4 5 14.3.3 2.7 1 5 1.5 5 .6 0 .8.6.5 1.4-.3.7-.1 1.8.5 2.4.8.8.8 1.6-.2 2.6-.7.9-1 2.2-.7 3.1 1 2.4-1.2 2.8-3.9.6-3.1-2.4-8.9-2.7-17.6-1-4.8 1-5.7 1.6-6.9 4.3-1.1 2.4-2.1 3.2-4.7 3.4-3.3.3-3.9-.1-11-8.1-1.8-2-3.9-2.8-9.7-3.8-4.1-.6-7.5-1.5-7.5-2s-.6-.6-1.4-.3c-.8.3-1.7.1-2.1-.5-.9-1.6-4.1-1.3-5.5.4-.7.8-2.8 1.5-4.6 1.5-2.7 0-3.4-.4-3.4-2 0-1.1.4-2.8.9-3.8.5-.9 1.7-4.9 2.6-8.7 1-3.9 2.2-7.4 2.6-7.9.5-.6.9-2.3.9-3.8 0-3.6 11.7-16 13-13.8.7 1.1 1.3 1.2 3.2.2 2.2-1.1 11.3-1.7 24.8-1.7 5 .1 7.9.7 12.3 2.8zM82 84.9c0 .6 2 1.3 4.5 1.7 3.5.5 4.5 1 4.5 2.5 0 2.3-2.5 3.5-4.3 2.1-.6-.5-3.9-1.3-7.2-1.8-3.3-.4-6.2-.8-6.5-.9-2.6-.8-4-1.9-4-3.1 0-1.1 1.6-1.4 6.5-1.4 3.6 0 6.5.4 6.5.9zm-26 8c0 3.3.4 6.3 1 6.6 2.2 1.4 5.9 12.5 4 12.5-1.6 0-4.2-4.7-4.7-9-.3-2.2-1-4.3-1.4-4.6-1.2-.7-1.1-11.4.1-11.4.6 0 1 2.6 1 5.9zm77.9-4.3c.3.5 1.5 1.4 2.6 2 2.8 1.6 3.2 4.4.6 4.4-1.2 0-2.1.6-2.1 1.5 0 .8-.9 1.5-2 1.5s-2-.4-2-.9-1.8-1.2-4-1.6c-2.2-.4-5-1.5-6.2-2.6l-2.3-1.9 2.5-2.1c2-1.7 3.4-2 7.3-1.6 2.7.2 5.2.8 5.6 1.3zM108 97c0 .8.6 2.6 1.3 4 .7 1.4 1.9 4.6 2.6 7.2.7 2.6 2.1 5.5 3.1 6.6 2.2 2.3 11.8 3.7 18.7 2.6l4.6-.7-.8 8.8c-.4 4.9-1.1 9.6-1.5 10.4-.4.9-1.3 4.5-2 8.1-.6 3.6-1.5 6.7-2 7-.4.3-1.5 2.7-2.5 5.5-.9 2.7-2.9 6.5-4.3 8.4-1.5 1.9-3.1 4.3-3.7 5.2-1.2 2.2-7.5 6.5-10.6 7.4-1.3.3-3.4 1.1-4.6 1.7-1.7.8-2.6.8-3.8-.2-1.3-1.1-2-1.1-4 0-3.3 1.8-8.9.5-12.9-3-1.9-1.7-4.3-3-5.5-3-2.4 0-11.1-7.8-15.1-13.5-1.5-2.2-3.3-5.8-4-8-.7-2.2-1.8-4.3-2.4-4.7-1.7-1.1-1.4-15 .4-18.3 1.2-2.2 1.2-2.9.3-3.2-1.8-.6-1.6-3.3.5-7.4 1.9-3.9 2-3.9 16.5-4.6 10.4-.5 10.7-.5 10.7 1.6 0 1.2-1 4.2-2.2 6.7-1.2 2.6-2.2 6.5-2.2 8.8l-.1 4.1 7.5.6c4.5.4 9.1.3 11.5-.4 2.2-.6 4.7-1.2 5.5-1.2.8-.1 2.7-.7 4.3-1.5 2-1 2.7-2.1 2.7-4.2 0-3.4-2.2-3.7-4.7-.8-1 1.1-2.6 2-3.6 2s-2.1-.9-2.4-2c-.3-1.1-.9-2-1.4-2-.4 0-1.3-1-2-2.1-.8-1.6-.8-2.7.1-4.5.9-1.6 1.1-4.8.7-10.1-.7-9 0-13.3 1.9-13.3.8 0 1.4-.5 1.4-1 0-.6.8-.5 2 .2 1.1.7 2 2 2 2.8zm6.5-3c.3.5.1 1-.4 1-.6 0-1.1-.5-1.1-1 0-.6.2-1 .4-1 .3 0 .8.4 1.1 1zm-31.7 3.2c-.2 1.7.3 2.4 2 2.6 2 .3 2.2.9 2.2 5.7v5.3l-4.5.6c-5.1.8-13.5-.2-13.5-1.5 0-.5-.8-.9-1.9-.9-1.9 0-5.1-3.9-5.1-6.3 0-1.6 7.5-3.7 13.5-3.7 3.8 0 4.5-.3 4.5-2 0-1.1.7-2 1.6-2 1 0 1.4.7 1.2 2.2zM129 101c0 1.1-.7 2-1.5 2-1.7 0-1.8-.2-.9-2.4.9-2.3 2.4-2 2.4.4zm-12.4 1.7c1.8 2.5 14.9 2.5 18.7 0 1.5-.9 2.9-1.7 3.3-1.7 1.1 0-.5 12.1-1.7 13.6s-9.9 2-9.9.5c0-.4-1.2-.6-2.6-.3-5.3 1-12.3-6.2-11-11.3.8-3 1.4-3.1 3.2-.8zM61 167.5c0 1.8 12 13.5 13.8 13.5.5 0 2.9 1.4 5.3 3.2 3.5 2.6 5.6 3.3 10.5 3.6 6.7.5 17.4-1.4 17.4-2.9 0-.6.4-.8.9-.5.5.3 1.4-.1 2.1-.9.7-.9 2.9-1.5 5.1-1.5 3.7 0 3.9.1 3.9 3.2 0 4.5 2.2 10.3 4.8 13.1l2.2 2.4-5.3 5.4c-6.1 6.2-10.6 9.9-12.3 9.9-.6 0-1.7.7-2.4 1.5-.7.9-2 1.5-2.9 1.4-.9-.1-2.4.1-3.4.6-1 .4-8.4.5-16.5.3-11-.4-15.4-.9-17.7-2.1-1.6-.9-4.2-1.7-5.6-1.7-1.5 0-2.9-.7-3.3-1.5-.3-.8-1.4-1.5-2.4-1.5s-3.2-1.5-4.9-3.3c-3.1-3.1-3.1-3.3-2.2-9.2.6-3.2 1.4-6.4 1.9-7 .5-.6 1.2-9 1.6-18.6l.7-17.5 4.3 4.7c2.4 2.5 4.4 5 4.4 5.4z"/><path d="M77.3 147.4c2.1.7 4.1 1.6 4.5 2.2.4.6 2.3 1.6 4.2 2.4 1.9.8 4.2 2.1 5 2.8 1.1 1.2 3.5 1.4 11.4.9 5.5-.4 10.2-1 10.5-1.5.3-.5 1.6-1.2 2.7-1.6 1.2-.4 2.9-1.5 3.9-2.6 1.8-2 1.7-2-4.8-2-3.6 0-6.8-.4-7.1-.9-.3-.5-8.1-.9-17.3-.8-14.2 0-16.2.2-13 1.1zM192.3 7.8l-4.3.3V103h16V63.7l5.1.5c8.1.8 8.3 1.4 8.9 20.1.3 8.9.9 16.8 1.3 17.4.6.9 3.5 1.3 8.9 1.3 7.3 0 7.9-.2 7.2-1.8-.5-.9-1.1-9.4-1.4-18.8-.5-16.9-.5-17.1-3.4-20.8-1.5-2.1-3.5-4-4.3-4.3-1.1-.4-.6-1.4 2-4.2 5-5.2 6-9.5 5.5-22.3-.4-10-.7-11.2-3.4-15.1-4.5-6.4-8-7.7-22-8-6.5-.1-13.8-.1-16.1.1zm23.4 15.4c2.1 2 2.3 3 2.3 11.9 0 11.1-1.1 13.5-7 14.8-7.1 1.5-7 1.6-7-14.5V21h4.7c3.4 0 5.3.6 7 2.2zM174.9 118.5c-.3.2-.2 3 .2 6.2s1.7 14.3 2.8 24.8c1.1 10.4 2.3 20.4 2.6 22.2.3 1.8 1.4 11.6 2.4 21.8 1 10.2 2.1 18.8 2.3 19 .5.6 20.7 1 21.2.4.3-.3 1.9-14.2 4.6-38.4.4-3.3.8-5.7.8-5.4.1.3.9 7.3 1.7 15.5.9 8.2 1.9 17.6 2.4 20.9.5 3.3.7 6.3.4 6.7-.4.8 15.6 1.4 21 .9.4-.1.7-2 .7-4.4 0-2.3.5-7.1 1-10.7.6-3.6 1.9-14.8 3-25s2.6-24.4 3.4-31.5c.9-7.2 1.8-15.4 2.1-18.3l.5-5.2h-13.7l-.6 5.7c-.3 3.2-1.3 12.5-2.2 20.8-.8 8.2-2.2 21.2-3 28.9-.8 7.6-1.6 14-1.8 14.2-.2.3-.9-6.2-1.6-14.3-.7-8.2-1.8-20.2-2.6-26.8-.7-6.6-1.7-15.7-2-20.3l-.7-8.3-7.7.3-7.6.3-1.2 11.5c-.7 6.3-1.9 19.4-2.8 29-.8 9.6-1.8 19.5-2.2 22l-.7 4.5-.7-3.5c-.4-1.9-1.3-9.1-1.9-16-.6-6.9-2-20.2-3-29.5-1.1-9.4-2-17.3-2-17.8 0-.8-14.3-1-15.1-.2z"/></svg>